HIERARCHY
ROOT Hips
{
	OFFSET 0.000000 0.000000 0.000000
	CHANNELS 6 Xposition Yposition Zposition Zrotation Yrotation Xrotation 
	JOINT LHipJoint
	{
		OFFSET 0.000000 0.000000 0.000000
		CHANNELS 3 Zrotation Yrotation Xrotation
		JOINT LeftUpLeg
		{
			OFFSET 1.363060 -1.794630 0.839290
			CHANNELS 3 Zrotation Yrotation Xrotation
			JOINT LeftLeg
			{
				OFFSET 2.448110 -6.726130 0.000000
				CHANNELS 3 Zrotation Yrotation Xrotation
				JOINT LeftFoot
				{
					OFFSET 2.562200 -7.039590 0.000000
					CHANNELS 3 Zrotation Yrotation Xrotation
					JOINT LeftToeBase
					{
						OFFSET 0.157640 -0.433110 2.322550
						CHANNELS 3 Zrotation Yrotation Xrotation
						End Site
						{
							OFFSET 0.000000 0.000000 0.000000
						}
					}
				}
			}
		}
	}
	JOINT RHipJoint
	{
		OFFSET 0.000000 0.000000 0.000000
		CHANNELS 3 Zrotation Yrotation Xrotation
		JOINT RightUpLeg
		{
			OFFSET -1.305520 -1.794630 0.839290
			CHANNELS 3 Zrotation Yrotation Xrotation
			JOINT RightLeg
			{
				OFFSET -2.542530 -6.985550 0.000000
				CHANNELS 3 Zrotation Yrotation Xrotation
				JOINT RightFoot
				{
					OFFSET -2.568260 -7.056230 0.000000
					CHANNELS 3 Zrotation Yrotation Xrotation
					JOINT RightToeBase
					{
						OFFSET -0.164730 -0.452590 2.363150
						CHANNELS 3 Zrotation Yrotation Xrotation
						End Site
						{
							OFFSET 0.000000 0.000000 0.000000
						}
					}
				}
			}
		}
	}
	JOINT LowerBack
	{
		OFFSET 0.000000 0.000000 0.000000
		CHANNELS 3 Zrotation Yrotation Xrotation
		JOINT Spine
		{
			OFFSET 0.028270 2.035590 -0.193380
			CHANNELS 3 Zrotation Yrotation Xrotation
			JOINT Spine1
			{
				OFFSET 0.056720 2.048850 -0.042750
				CHANNELS 3 Zrotation Yrotation Xrotation
				JOINT Neck
				{
					OFFSET 0.000000 0.000000 0.000000
					CHANNELS 3 Zrotation Yrotation Xrotation
					JOINT Neck1
					{
						OFFSET -0.054170 1.746240 0.172020
						CHANNELS 3 Zrotation Yrotation Xrotation
						JOINT Head
						{
							OFFSET 0.104070 1.761360 -0.123970
							CHANNELS 3 Zrotation Yrotation Xrotation
							End Site
							{
								OFFSET 0.000000 0.000000 0.000000
							}
						}
					}
				}
				JOINT LeftShoulder
				{
					OFFSET 0.000000 0.000000 0.000000
					CHANNELS 3 Zrotation Yrotation Xrotation
					JOINT LeftArm
					{
						OFFSET 3.362410 1.200890 -0.311210
						CHANNELS 3 Zrotation Yrotation Xrotation
						JOINT LeftForeArm
						{
							OFFSET 4.983000 -0.000000 -0.000000
							CHANNELS 3 Zrotation Yrotation Xrotation
							JOINT LeftHand
							{
								OFFSET 3.483560 -0.000000 -0.000000
								CHANNELS 3 Zrotation Yrotation Xrotation
								JOINT LeftFingerBase
								{
									OFFSET 0.000000 0.000000 0.000000
									CHANNELS 3 Zrotation Yrotation Xrotation
									JOINT LeftHandIndex1
									{
										OFFSET 0.715260 -0.000000 -0.000000
										CHANNELS 3 Zrotation Yrotation Xrotation
										End Site
										{
											OFFSET 0.000000 0.000000 0.000000
										}
									}
								}
								JOINT LThumb
								{
									OFFSET 0.000000 0.000000 0.000000
									CHANNELS 3 Zrotation Yrotation Xrotation
									End Site
									{
										OFFSET 0.000000 0.000000 0.000000
									}
								}
							}
						}
					}
				}
				JOINT RightShoulder
				{
					OFFSET 0.000000 0.000000 0.000000
					CHANNELS 3 Zrotation Yrotation Xrotation
					JOINT RightArm
					{
						OFFSET -3.136600 1.374050 -0.404650
						CHANNELS 3 Zrotation Yrotation Xrotation
						JOINT RightForeArm
						{
							OFFSET -5.241900 -0.000000 -0.000000
							CHANNELS 3 Zrotation Yrotation Xrotation
							JOINT RightHand
							{
								OFFSET -3.444170 -0.000000 -0.000000
								CHANNELS 3 Zrotation Yrotation Xrotation
								JOINT RightFingerBase
								{
									OFFSET 0.000000 0.000000 0.000000
									CHANNELS 3 Zrotation Yrotation Xrotation
									JOINT RightHandIndex1
									{
										OFFSET -0.622530 -0.000000 -0.000000
										CHANNELS 3 Zrotation Yrotation Xrotation
										End Site
										{
											OFFSET 0.000000 0.000000 0.000000
										}
									}
								}
								JOINT RThumb
								{
									OFFSET 0.000000 0.000000 0.000000
									CHANNELS 3 Zrotation Yrotation Xrotation
									End Site
									{
										OFFSET 0.000000 0.000000 0.000000
									}
								}
							}
						}
					}
				}
			}
		}
	}
}
MOTION
Frames: 12
Frame Time: 0.033333
0.768941 17.716325 -10.942533 89.164779 -21.299431 -37.455441 -92.558937 -46.821134 50.457250 -12.961208 -10.568255 -43.448728 -51.683593 65.747798 -57.155937 14.755824 4.948401 28.374353 2.046049 0.289381 -46.809376 33.677091 -4.090946 -101.855974 39.333068 -61.559532 -105.071211 112.285813 -56.138704 -142.603111 -28.510067 1.061554 23.467355 0.056034 -0.127241 -29.157836 -104.194507 60.039536 -29.377359 -177.591036 76.043561 -175.040658 -152.464539 73.869032 -154.065199 5.011808 8.894919 -5.024887 9.397167 -11.726832 14.949838 0.014280 -0.085337 0.099290 109.905670 65.973942 15.295211 178.916294 86.370463 115.636053 -43.869339 25.220094 -111.295716 -3.576769 -39.658771 21.693036 20.598131 30.564692 43.777171 -0.045965 -0.037064 0.033297 0.096392 0.029069 -0.026277 27.528134 64.601269 63.941752 55.125402 26.153827 -174.796483 22.237408 -49.373519 22.077438 17.477871 -38.979889 29.170122 4.557848 4.400561 -47.701095 -0.038155 0.075117 -0.025184 -0.009432 -0.097444 -0.118131 
0.690614 17.397743 -10.312673 88.737789 -20.436211 -37.023568 -92.479483 -46.304893 48.922109 -10.985996 -7.226078 -42.280906 -57.469957 65.560104 -55.711712 7.598152 4.195295 30.813457 2.295284 0.218574 -45.600109 31.893594 -2.190185 -104.624566 32.899165 -63.445578 -101.969186 112.406893 -54.904943 -139.690941 -28.564058 -2.184719 12.166691 0.113030 -0.091570 -26.560332 -105.146041 59.865062 -29.356432 -169.559924 76.980983 -166.817700 -155.735392 72.915003 -159.017475 2.284950 7.973100 -2.469844 14.646063 -11.487076 10.426424 0.090218 -0.072759 0.087602 115.573174 63.798400 21.310782 -169.974604 84.411085 131.075608 -44.652126 20.007853 -102.626707 -17.851179 -42.964059 19.061362 16.242507 36.682898 9.843640 -0.135146 0.001199 0.059385 0.015919 0.071667 0.040944 32.121538 64.178156 67.034085 56.973190 26.862609 -175.376208 25.389616 -53.742218 22.187317 17.328134 -38.568377 26.825759 -2.374457 2.130265 -75.029290 -0.080892 0.017976 -0.012439 -0.027285 -0.065069 0.036787 
0.650991 17.121408 -9.748111 88.922606 -18.916491 -36.824549 -91.663261 -46.867740 47.183648 -9.000578 -3.478685 -41.092476 -68.689498 64.450075 -55.580310 0.394044 8.199458 24.716597 2.193265 0.167730 -40.794025 28.314426 -2.936182 -106.638475 38.285487 -66.289243 -109.192449 113.611263 -54.950878 -135.930766 -20.796889 -4.693242 0.273501 0.337706 -0.097118 -22.536394 -103.640553 58.752232 -27.349360 -174.883138 74.842310 -172.693172 -159.415205 74.285375 -163.812029 0.957668 7.057756 -0.027702 16.241240 -17.797351 4.764821 0.062605 -0.030165 0.065009 115.418068 61.866909 19.522118 168.955286 82.694518 109.170240 -43.812043 17.730584 -100.488027 -15.180181 -38.965379 18.965282 5.181539 26.000209 -32.493850 -0.033862 -0.033555 0.043544 0.023227 0.061847 -0.075909 38.903819 63.138897 72.392533 59.844837 30.350357 -175.350325 20.437723 -52.373004 32.984918 6.968101 -32.829047 31.638447 16.425697 17.080482 -79.969203 -0.069925 0.032751 -0.052959 -0.032507 -0.009296 -0.014077 
0.622780 16.937748 -9.196241 88.749800 -18.888230 -37.072785 -89.901030 -46.966467 47.003608 -6.390908 0.243734 -42.194186 -75.782649 63.774557 -53.016838 8.478229 13.669766 13.729262 2.175720 0.057562 -35.732837 27.651590 -2.241883 -106.071237 40.891700 -66.385820 -114.123125 115.043997 -55.875151 -132.527687 -13.635542 -5.674998 -9.064226 0.544441 -0.105133 -20.255279 -102.607087 58.432378 -25.769501 -173.746516 74.011356 -171.123188 -158.093952 73.403755 -163.331310 2.225834 10.075627 -0.700503 15.941055 -14.879636 6.723755 -0.003535 -0.054417 0.022247 115.063113 62.343635 19.394838 155.169263 80.524245 97.274003 -42.769921 15.098647 -103.095801 5.512992 -37.068733 6.056269 8.568549 20.228231 -26.147491 -0.054608 -0.069386 0.032867 -0.018054 0.040743 -0.057921 47.843680 62.796618 80.033500 61.350457 35.781416 -176.196364 13.568733 -48.054133 44.104842 6.891891 -22.830820 24.777597 26.801826 21.579642 -76.340320 -0.025979 0.024881 -0.057805 -0.079450 -0.057932 -0.043456 
0.558563 16.837287 -8.611268 87.637702 -19.679261 -36.897763 -88.668189 -47.194428 47.873902 -4.167776 3.173242 -43.470524 -76.035883 64.592651 -48.324260 10.664133 16.382234 2.376300 1.552089 0.018706 -31.564013 29.362805 -1.524824 -104.428594 43.056950 -63.830790 -118.000412 114.115026 -56.471816 -128.028913 -8.046987 -5.307004 -15.363292 0.730439 -0.182790 -19.297097 -100.468698 60.740682 -23.188107 -173.389262 72.620260 -170.154453 -157.341860 73.553042 -163.975936 5.913310 8.514017 0.210317 20.945318 -15.226969 9.419583 0.031858 -0.050988 0.044148 113.269932 61.057248 19.370724 148.018445 76.914130 96.753947 -41.327365 13.427200 -106.949401 9.841005 -30.777348 -3.234076 -1.743731 18.581143 -22.674797 0.012130 -0.105110 0.049411 0.024484 0.028377 0.004988 55.974357 62.552163 86.723446 61.740418 38.333374 -178.289590 0.777543 -48.800428 58.851439 4.607078 -9.373916 15.771220 30.134385 38.123104 -77.099280 0.060503 0.035596 0.006163 0.023144 -0.087077 -0.049167 
0.458816 16.825790 -7.987814 86.712830 -20.146525 -35.998214 -92.912938 -48.300117 51.556152 -0.354807 8.147113 -42.628193 -70.763238 64.087844 -43.116813 14.695980 12.025617 -0.204323 1.026681 -0.007940 -29.641432 31.211545 -0.762340 -104.877320 38.481806 -59.862014 -116.072111 112.365391 -57.873067 -128.944938 -3.735530 -4.325804 -16.992927 0.771492 -0.164492 -21.005813 -99.660536 62.116657 -24.390453 -177.333853 72.672227 -174.439332 -158.383056 71.822717 -165.656364 4.145038 4.319243 1.832472 22.098113 -16.150686 5.122546 0.079385 -0.053592 0.000846 111.312875 59.727407 19.797931 150.338239 73.509145 103.273647 -36.297348 13.743881 -105.565587 -2.590082 -18.515552 6.878984 -10.902813 13.759761 -10.309190 -0.018586 0.008155 0.018525 0.031002 -0.011333 -0.051609 59.138321 65.101431 91.007109 63.563026 43.240579 178.363119 -14.444119 -50.197163 75.522866 1.731144 -3.091415 15.787573 30.863540 43.223490 -76.977814 -0.047231 0.030095 -0.025712 -0.038448 0.036445 0.009065 
0.357266 16.934504 -7.333445 86.999168 -20.092571 -35.032282 -95.161914 -48.697964 53.497815 3.147850 11.143452 -43.309970 -65.046872 63.972795 -38.350010 13.875768 8.887494 -3.274102 0.566278 -0.011517 -27.113970 31.437355 -1.725200 -105.814181 37.806185 -55.924668 -116.158921 110.546496 -59.113800 -131.133762 -0.473130 -3.416754 -14.918686 1.087705 -0.286227 -25.222527 -101.727009 62.904040 -26.716950 -176.426537 71.577578 -173.215633 -154.899294 70.621215 -163.590191 0.544168 -0.991031 2.499982 23.702913 -7.796747 7.643060 -0.072552 0.055827 0.020670 113.997333 57.295008 21.328746 146.093965 71.062220 106.235879 -31.976759 11.099183 -106.089114 -3.287976 -10.782487 21.426880 -12.374277 3.727239 -6.189096 -0.087853 0.005942 0.054540 -0.027958 0.065733 -0.003305 63.849998 67.439424 96.490789 63.954622 48.364733 173.935588 -28.395945 -49.102693 88.039720 -2.583007 3.047501 16.428805 34.059323 39.978489 -46.398183 -0.019573 0.005452 0.068579 0.010244 -0.052084 -0.024994 
0.268828 17.174849 -6.641483 88.346047 -21.385676 -34.397542 -95.837465 -48.038823 54.137332 8.505324 14.028923 -45.294119 -65.563379 64.725739 -39.810297 7.935067 11.265882 -5.562065 0.412185 -0.101340 -25.972065 32.968341 -2.367767 -105.890135 37.600860 -50.690757 -114.209538 106.421975 -59.662720 -131.535873 3.069456 -4.662417 -9.744920 1.097656 -0.194670 -32.841115 -107.742806 63.710552 -31.895408 -172.817597 71.421390 -169.262745 -152.860176 69.135697 -162.141230 1.224163 -6.967365 4.751077 20.434639 -6.495153 6.810969 0.046735 -0.052249 0.033514 119.088873 56.440413 25.310941 139.757335 69.416936 107.952111 -30.211379 8.237373 -110.828680 -7.770532 -19.943423 47.292457 -12.088132 -3.008041 -0.740599 -0.041480 -0.057777 0.039424 0.012659 0.000987 -0.019858 67.407734 69.366423 99.170415 61.903613 52.951446 168.161934 -40.023261 -45.221661 97.862872 -5.218363 9.203598 14.686871 26.418707 34.166855 -32.067653 -0.052575 -0.001316 -0.027144 0.000558 -0.083573 -0.001754 
0.193710 17.525776 -5.909252 87.938014 -23.024109 -32.285097 -96.071656 -46.757571 54.796635 15.168564 15.942081 -46.937889 -68.878696 67.284082 -46.176790 8.510654 12.042293 -5.809084 0.615109 -0.082986 -25.642291 32.777046 -5.182703 -104.285234 36.009573 -47.710420 -111.693272 103.086932 -62.949895 -133.639474 6.506322 -7.116381 -0.540236 0.975540 -0.159044 -41.228313 -110.562313 63.264387 -34.367019 -171.928585 70.430830 -167.461719 -148.408886 67.315740 -156.808220 4.591247 -7.757507 5.890798 18.431664 -3.856415 7.080783 0.101128 -0.122026 0.038211 124.748901 55.745465 31.913348 136.494003 68.065469 111.285233 -35.190548 9.313484 -117.960442 -7.488831 -15.989592 55.078195 -10.560022 -10.928951 -6.108184 -0.087545 -0.074828 0.042066 0.030354 0.013305 -0.015444 67.784969 71.331718 98.537647 58.113631 56.822056 159.983248 -47.593198 -40.818387 103.059563 -1.037537 12.738278 17.678853 19.035332 22.455579 -11.902945 0.036748 0.090447 0.035576 -0.081407 -0.024870 -0.084492 
0.143379 17.945894 -5.150853 87.770180 -24.109685 -30.300031 -98.211319 -46.052610 57.303910 19.916714 18.416528 -49.056904 -67.718071 68.649918 -50.235018 13.196908 11.528591 -3.150460 0.840467 -0.086911 -27.205247 32.952230 -8.060260 -104.559492 35.339023 -45.718377 -108.245292 101.091354 -65.210489 -134.181997 8.389138 -8.630962 9.410091 0.587970 -0.102578 -50.156807 -115.350742 63.654299 -39.713969 -175.447093 70.375606 -171.202694 -145.619791 65.655859 -153.250270 7.834787 -10.032267 6.020716 16.301754 -1.264627 8.972025 0.029508 -0.043376 0.070447 130.562708 55.500983 37.396100 127.513805 68.356701 109.147759 -42.774113 13.440903 -125.910233 -2.709080 -10.128056 50.805259 -7.455247 -18.553613 -4.163761 -0.074604 -0.054480 0.053770 0.077463 0.065474 -0.045364 66.138667 72.457551 95.424822 53.658814 59.134565 152.180981 -51.381434 -36.464151 106.421792 0.776573 15.948990 16.048568 15.616644 9.239221 8.729423 -0.081757 0.057950 -0.047438 -0.021912 -0.096906 -0.082995 
0.124769 18.358221 -4.377044 87.284192 -24.699887 -29.206809 -99.399517 -44.769552 60.261360 21.477414 19.096016 -51.895426 -62.491420 67.344033 -53.376806 16.384425 11.690775 -2.144941 0.898453 0.034842 -29.765874 34.092012 -10.520874 -103.858038 36.005088 -42.719310 -106.693881 99.503017 -66.802002 -132.819067 11.015382 -9.965695 17.248258 0.232259 -0.118413 -56.477201 -120.060264 64.175471 -43.824831 -174.716736 70.481029 -170.478435 -143.253295 64.337393 -149.903366 9.175316 -8.406350 5.874761 15.569617 -2.537521 10.339735 0.038682 -0.116146 0.091432 135.657802 54.853041 43.586967 120.595248 67.635338 106.730439 -52.733224 16.058797 -131.544238 -6.831080 -14.966928 51.044929 -4.193218 -21.289318 -2.477654 -0.098808 -0.067882 0.099620 0.073971 0.043061 -0.060949 64.379623 74.988912 93.412506 53.175044 59.581387 148.008196 -51.470446 -35.106099 110.682796 2.004080 11.991160 12.753015 10.959085 0.653874 20.708960 -0.042915 0.072010 -0.036284 -0.078261 -0.029775 0.018270 
0.128507 18.659971 -3.590516 86.816818 -25.102921 -27.753962 -99.667732 -44.679202 62.910351 19.668409 18.934822 -54.674851 -55.166535 64.652258 -57.064178 16.623799 10.383477 -0.227671 0.916844 0.056992 -32.607143 35.457258 -11.497608 -104.577584 37.496680 -41.075877 -105.641517 96.643656 -66.188598 -127.273934 10.522390 -10.124344 22.270996 -0.249808 -0.191356 -60.976544 -121.751911 64.910315 -45.399160 -176.535333 69.657824 -172.307011 -141.570896 63.988950 -148.528545 10.369130 -9.272137 6.243110 15.467730 0.642714 10.974172 0.117441 -0.052908 0.101060 141.008815 53.907372 49.309005 108.338815 67.876496 101.391598 -63.522463 13.895969 -140.723980 -8.986893 -15.142182 52.407620 -4.665022 -22.331583 -1.325704 -0.090848 -0.105888 0.030719 0.092648 0.068254 -0.032229 63.530359 77.060362 91.084455 56.058974 58.847528 145.642764 -50.915048 -34.324258 114.232046 7.443813 3.797448 7.851273 0.548351 -3.400784 27.818724 -0.136088 0.111157 -0.086321 -0.024233 -0.110461 -0.095765 
